# xmcd CD database file
# Copyright (C) 1996 Ti Kan
#
# Track frame offsets:
#  187
#  15632
#  26392
#  38185
#  51720
#  64032
#  75355
#  88225
#  101385
#  114387
#
# Disc length: 1684 seconds
#
# Revision: 1
# Processed by: cddbd v1.4b41PL1 Copyright (c) Steve Scherf et al.
# Submitted via: CDWizzard Release:4.10
#
DISCID=7506920a
DTITLE=Loretta Lynn - Loretta Lynn: Making Love from Memory
DYEAR=1900
DGENRE=
TTITLE0=Making Love from Memory
TTITLE1=Don't It Feel Good
TTITLE2=I Shouldn"t Enjoy (Enjoyin' You So Much)
TTITLE3=There's All Kinds of Smoke (In the Barroom)
TTITLE4=Love the Day Away
TTITLE5=When We Get Back Together
TTITLE6=Then You'll Be Free
TTITLE7=I Don't Want to Hear It Anymore
TTITLE8=Breakin' It
TTITLE9=Deeper and Deeper
EXTD=
EXTT0=Loretta Lynn
EXTT1=Loretta Lynn
EXTT2=Loretta Lynn
EXTT3=Loretta Lynn
EXTT4=Loretta Lynn
EXTT5=Loretta Lynn
EXTT6=Loretta Lynn
EXTT7=Loretta Lynn
EXTT8=Loretta Lynn
EXTT9=Loretta Lynn
PLAYORDER=
